<?xml version="1.0" encoding="utf-8"?>
<!-- Generator: Adobe Illustrator 19.2.1, SVG Export Plug-In . SVG Version: 6.00 Build 0)  -->
<svg version="1.1" id="Layer_1" xmlns="http://www.w3.org/2000/svg" xmlns:xlink="http://www.w3.org/1999/xlink" x="0px" y="0px"
	 viewBox="0 0 25 4.3599" style="enable-background:new 0 0 25 4.3599;" xml:space="preserve">
<style type="text/css">
	.st0{fill:#97C4E6;}
	.st1{clip-path:url(#SVGID_2_);}
	.st2{fill:#89B7D3;}
	.st3{fill:#EFCA5B;}
	.st4{fill:#EF5A6C;}
	.st5{fill:#FFFFFF;}
	.st6{fill:#E6E6E6;}
	.st7{fill:#3F3C36;}
	.st8{fill:none;stroke:#EF5A6C;stroke-width:9;stroke-miterlimit:10;}
	.st9{fill:none;stroke:#EFCA5B;stroke-width:12;stroke-miterlimit:10;}
	.st10{fill:#DB5263;}
	.st11{fill:#DCBA53;}
	.st12{fill:none;stroke:#EF5A6C;stroke-width:10;stroke-miterlimit:10;}
</style>
<g>
	<path class="st3" d="M1.6031,1.3701c0.3291,0,0.6314,0.1462,0.9069,0.4382c0.2755,0.2922,0.4133,0.6268,0.4133,1.004
		c0,0.3957-0.1369,0.7387-0.4105,1.0289C2.2391,4.1317,1.9359,4.2767,1.6031,4.2767c-0.2959,0-0.5103-0.0888-0.6434-0.2663
		C0.93,4.1917,0.771,4.2823,0.4826,4.2823c-0.1146,0-0.2071-0.0111-0.2774-0.0333s-0.1193-0.061-0.147-0.1165
		C0.0305,4.077,0.0138,4.0281,0.0083,3.9855C0.0027,3.943,0,3.8793,0,3.7941V0.4826c0-0.085,0.0027-0.1488,0.0083-0.1914
		C0.0138,0.2487,0.0305,0.2006,0.0582,0.147c0.0277-0.0535,0.0767-0.0915,0.147-0.1137C0.2755,0.0111,0.3697,0,0.4881,0
		c0.1146,0,0.2071,0.0111,0.2774,0.0333c0.0702,0.0222,0.1192,0.061,0.147,0.1165c0.0278,0.0554,0.0444,0.1045,0.0499,0.147
		c0.0055,0.0426,0.0083,0.1064,0.0083,0.1914v1.1538C1.1186,1.4608,1.3294,1.3701,1.6031,1.3701z M1.1177,3.1618
		C1.2082,3.2616,1.322,3.3116,1.4589,3.3116c0.1367,0,0.2532-0.0499,0.3495-0.1498C1.9044,3.0619,1.9525,2.951,1.9525,2.829
		c0-0.122-0.0443-0.2339-0.1331-0.3356c-0.0887-0.1016-0.2071-0.1525-0.355-0.1525c-0.1479,0-0.2654,0.0518-0.3523,0.1553
		C1.0252,2.5997,0.9818,2.7106,0.9818,2.829C0.9818,2.951,1.0271,3.0619,1.1177,3.1618z"/>
	<path class="st3" d="M5.6635,1.3646c0.1146,0,0.2071,0.0111,0.2773,0.0333C6.011,1.42,6.06,1.4588,6.0878,1.5143
		c0.0278,0.0554,0.0444,0.1045,0.0499,0.147C6.1433,1.7039,6.146,1.7677,6.146,1.8527v1.9415c0,0.0851-0.0028,0.1489-0.0083,0.1914
		C6.1322,4.0281,6.1156,4.0762,6.0878,4.1298S6.011,4.2212,5.9408,4.2435C5.8705,4.2656,5.7762,4.2767,5.6579,4.2767
		c-0.1664,0-0.2838-0.025-0.3522-0.0749C5.2372,4.1519,5.1975,4.079,5.1864,3.9827c-0.1369,0.1961-0.3587,0.294-0.6656,0.294
		c-0.3328,0-0.6361-0.1461-0.9097-0.4383C3.3374,3.5464,3.2006,3.2043,3.2006,2.8123c0-0.3808,0.1377-0.7164,0.4132-1.0068
		c0.2755-0.2903,0.5777-0.4355,0.9069-0.4355c0.1257,0,0.2403,0.0222,0.3439,0.0666C4.9681,1.481,5.0402,1.5227,5.081,1.5615
		C5.1217,1.6003,5.155,1.6383,5.1809,1.6752c0.011-0.1035,0.0508-0.1811,0.1193-0.233C5.3685,1.3905,5.4895,1.3646,5.6635,1.3646z
		 M4.6705,3.306c0.1331,0,0.245-0.0499,0.3356-0.1498C5.0967,3.0564,5.142,2.9455,5.142,2.8234
		c0-0.1183-0.0434-0.2293-0.1303-0.3328C4.9248,2.3871,4.8073,2.3353,4.6594,2.3353c-0.1442,0-0.2616,0.0518-0.3522,0.1553
		C4.2166,2.5942,4.1713,2.7069,4.1713,2.829c0,0.122,0.0481,0.2321,0.1442,0.33C4.4116,3.257,4.53,3.306,4.6705,3.306z"/>
	<path class="st3" d="M8.215,1.3646c0.3698,0,0.6776,0.1414,0.9236,0.4243c0.2459,0.2829,0.3688,0.6278,0.3688,1.0345v0.9763
		c0,0.0851-0.0027,0.149-0.0083,0.1914C9.4936,4.0336,9.477,4.0818,9.4492,4.1353C9.4215,4.189,9.3724,4.2268,9.3022,4.249
		C9.2319,4.2711,9.1376,4.2823,9.0193,4.2823c-0.0962,0-0.1757-0.0092-0.2386-0.0278C8.7179,4.2361,8.6699,4.2149,8.6366,4.1907
		C8.6033,4.1667,8.5784,4.1289,8.5617,4.077C8.5451,4.0253,8.5358,3.9827,8.534,3.9494C8.532,3.9162,8.5312,3.8644,8.5312,3.7941
		V2.8179c0-0.1516-0.0434-0.2699-0.1303-0.355c-0.0869-0.085-0.2044-0.1276-0.3523-0.1276c-0.1442,0-0.2616,0.0444-0.3522,0.1331
		C7.6057,2.5572,7.5605,2.6736,7.5605,2.8179v0.9818c0,0.0851-0.0027,0.149-0.0083,0.1914C7.5466,4.0336,7.53,4.0818,7.5022,4.1353
		C7.4745,4.189,7.4255,4.2268,7.3552,4.249C7.2849,4.2711,7.1906,4.2823,7.0723,4.2823c-0.1147,0-0.2072-0.0111-0.2774-0.0333
		c-0.0703-0.0222-0.1192-0.061-0.147-0.1165C6.6202,4.077,6.6036,4.0281,6.5981,3.9855C6.5926,3.943,6.5898,3.8793,6.5898,3.7941
		V1.8305c0-0.0813,0.0028-0.1433,0.0083-0.1858c0.0055-0.0424,0.023-0.0896,0.0526-0.1414C6.6803,1.4515,6.7303,1.4154,6.8005,1.395
		c0.0702-0.0202,0.1627-0.0305,0.2774-0.0305c0.111,0,0.2015,0.0111,0.2718,0.0333C7.4199,1.42,7.468,1.4524,7.4939,1.4949
		c0.0258,0.0426,0.0416,0.0786,0.0472,0.1082c0.0055,0.0297,0.0082,0.0685,0.0082,0.1165c0.0074-0.0111,0.0175-0.024,0.0306-0.0388
		C7.5928,1.666,7.6205,1.6383,7.6631,1.5975C7.7056,1.5569,7.7509,1.5208,7.799,1.4894c0.048-0.0314,0.11-0.0601,0.1858-0.086
		C8.0606,1.3776,8.1374,1.3646,8.215,1.3646z"/>
	<path class="st3" d="M12.231,0c0.1146,0,0.2071,0.0111,0.2774,0.0333c0.0702,0.0222,0.1192,0.061,0.147,0.1165
		c0.0278,0.0554,0.0444,0.1045,0.0499,0.147c0.0055,0.0426,0.0083,0.1064,0.0083,0.1914v3.3116c0,0.0851-0.0028,0.149-0.0083,0.1914
		c-0.0055,0.0426-0.0231,0.0907-0.0527,0.1442C12.6229,4.189,12.573,4.2268,12.5028,4.249s-0.1646,0.0333-0.2829,0.0333
		c-0.2811,0-0.4363-0.0906-0.4659-0.2718c-0.1553,0.1775-0.3716,0.2663-0.649,0.2663c-0.3328,0-0.636-0.1451-0.9097-0.4355
		C9.9215,3.551,9.7848,3.2081,9.7848,2.8123c0-0.3772,0.1378-0.7118,0.4133-1.004c0.2754-0.2921,0.5777-0.4382,0.9069-0.4382
		c0.2736,0,0.4863,0.0925,0.638,0.2774V0.4826c0-0.085,0.0028-0.1488,0.0082-0.1914c0.0056-0.0425,0.0222-0.0906,0.0499-0.1442
		c0.0278-0.0535,0.0767-0.0915,0.147-0.1137C12.0183,0.0111,12.1126,0,12.231,0z M10.8997,3.1618
		c0.0961,0.0998,0.2126,0.1498,0.3495,0.1498c0.1367,0,0.2504-0.0499,0.3411-0.1498c0.0906-0.0998,0.1359-0.2108,0.1359-0.3328
		c0-0.1183-0.0436-0.2293-0.1303-0.3328c-0.087-0.1035-0.2044-0.1553-0.3523-0.1553c-0.148,0-0.2663,0.0509-0.3551,0.1525
		c-0.0887,0.1018-0.1331,0.2136-0.1331,0.3356C10.7555,2.951,10.8035,3.0619,10.8997,3.1618z"/>
	<path class="st3" d="M15.9752,2.4517c0,0.2441-0.0565,0.4207-0.1692,0.5298c-0.1129,0.1091-0.2377,0.1636-0.3744,0.1636h-1.3146
		c0,0.1036,0.061,0.1905,0.1831,0.2607c0.122,0.0703,0.2532,0.1054,0.3939,0.1054c0.0998,0,0.1941-0.0074,0.2829-0.0222
		c0.0887-0.0147,0.1534-0.0296,0.1941-0.0444l0.061-0.0222c0.0887-0.0406,0.1627-0.061,0.2219-0.061
		c0.1183,0,0.22,0.0832,0.3051,0.2496c0.048,0.0998,0.0721,0.185,0.0721,0.2551c0,0.3292-0.3939,0.4937-1.1815,0.4937
		c-0.2737,0-0.5168-0.0471-0.7294-0.1414c-0.2127-0.0943-0.3782-0.2182-0.4965-0.3716c-0.1184-0.1535-0.2062-0.3153-0.2635-0.4854
		c-0.0574-0.1701-0.086-0.3439-0.086-0.5214c0-0.4659,0.1507-0.8385,0.4521-1.1177c0.3014-0.2792,0.6776-0.4188,1.1288-0.4188
		c0.1811,0,0.3475,0.025,0.4992,0.0749c0.1516,0.0499,0.2774,0.1147,0.3772,0.1942c0.0998,0.0796,0.1839,0.1711,0.2524,0.2746
		c0.0683,0.1036,0.1173,0.2062,0.147,0.3079C15.9603,2.2568,15.9752,2.3557,15.9752,2.4517z M14.8047,2.6404
		c0.1405,0,0.2108-0.0591,0.2108-0.1775c0-0.085-0.0324-0.1534-0.097-0.2053C14.8537,2.2059,14.7604,2.18,14.6383,2.18
		c-0.1184,0-0.2367,0.049-0.355,0.147c-0.1184,0.098-0.1775,0.2025-0.1775,0.3134H14.8047z"/>
	<path class="st3" d="M18.5655,1.7085c0,0.159-0.0352,0.3088-0.1054,0.4493c-0.0703,0.1406-0.1719,0.2108-0.3051,0.2108
		c-0.0666,0-0.1304-0.0147-0.1914-0.0444c-0.061-0.0296-0.123-0.0444-0.1859-0.0444c-0.1369,0-0.2487,0.0352-0.3356,0.1054
		c-0.0869,0.0703-0.1303,0.1553-0.1303,0.2552v1.1648c0,0.0851-0.0028,0.1489-0.0083,0.1914
		c-0.0055,0.0426-0.0231,0.0906-0.0527,0.1442c-0.0296,0.0537-0.0795,0.0915-0.1498,0.1137
		c-0.0702,0.0222-0.1646,0.0333-0.2829,0.0333c-0.0925,0-0.171-0.0091-0.2357-0.0277c-0.0648-0.0185-0.1129-0.0406-0.1442-0.0666
		c-0.0314-0.0258-0.0554-0.0638-0.0721-0.1137c-0.0166-0.0499-0.0259-0.0925-0.0278-0.1276
		c-0.0019-0.0351-0.0028-0.0878-0.0028-0.1581v-1.947c0-0.085,0.0028-0.1488,0.0083-0.1914
		c0.0056-0.0425,0.0222-0.0906,0.0499-0.1442c0.0278-0.0535,0.0767-0.0915,0.147-0.1137c0.0702-0.0222,0.1645-0.0333,0.2829-0.0333
		c0.1109,0,0.2015,0.0111,0.2718,0.0333c0.0702,0.0222,0.1183,0.0527,0.1442,0.0915c0.0258,0.0388,0.0424,0.0712,0.0499,0.097
		c0.0074,0.0259,0.011,0.0555,0.011,0.0888c0.0185-0.0258,0.0453-0.0573,0.0805-0.0943c0.035-0.0369,0.1099-0.0868,0.2247-0.1498
		c0.1146-0.0628,0.2311-0.0943,0.3495-0.0943c0.0554,0,0.1127,0.0047,0.1719,0.0139c0.0591,0.0093,0.1238,0.025,0.1942,0.0472
		c0.0702,0.0222,0.1284,0.0602,0.1747,0.1137C18.5424,1.5652,18.5655,1.6308,18.5655,1.7085z"/>
	<path class="st3" d="M20.1409,1.298c0.4067,0,0.7636,0.1434,1.0705,0.4299c0.3069,0.2867,0.4604,0.6518,0.4604,1.0955
		c0,0.307-0.0796,0.5797-0.2386,0.8182c-0.159,0.2386-0.3522,0.4143-0.5796,0.527c-0.2275,0.1129-0.4614,0.1691-0.7017,0.1691
		c-0.2478,0-0.4863-0.06-0.7156-0.1803c-0.2293-0.1202-0.4225-0.2976-0.5796-0.5325c-0.1572-0.2348-0.2358-0.5001-0.2358-0.796
		c0-0.4438,0.1554-0.8099,0.4659-1.0983C19.3976,1.4422,19.7489,1.298,20.1409,1.298z M19.7803,3.2256
		c0.1183,0.0907,0.2385,0.1359,0.3606,0.1359c0.122,0,0.244-0.0462,0.3661-0.1387c0.122-0.0924,0.1831-0.2293,0.1831-0.4105
		c0-0.1811-0.0574-0.3162-0.172-0.4049c-0.1146-0.0888-0.2423-0.1331-0.3827-0.1331c-0.1258,0-0.2459,0.0463-0.3605,0.1387
		c-0.1147,0.0925-0.172,0.2274-0.172,0.4049C19.6028,2.9991,19.6619,3.135,19.7803,3.2256z"/>
	<path class="st3" d="M23.469,1.298c0.4067,0,0.7636,0.1434,1.0705,0.4299C24.8465,2.0145,25,2.3797,25,2.8234
		c0,0.307-0.0796,0.5797-0.2386,0.8182c-0.159,0.2386-0.3522,0.4143-0.5796,0.527c-0.2275,0.1129-0.4614,0.1691-0.7017,0.1691
		c-0.2478,0-0.4863-0.06-0.7156-0.1803c-0.2293-0.1202-0.4225-0.2976-0.5796-0.5325c-0.1572-0.2348-0.2358-0.5001-0.2358-0.796
		c0-0.4438,0.1554-0.8099,0.4659-1.0983C22.7257,1.4422,23.077,1.298,23.469,1.298z M23.1084,3.2256
		c0.1183,0.0907,0.2385,0.1359,0.3606,0.1359c0.122,0,0.244-0.0462,0.3661-0.1387c0.122-0.0924,0.1831-0.2293,0.1831-0.4105
		c0-0.1811-0.0574-0.3162-0.172-0.4049c-0.1146-0.0888-0.2423-0.1331-0.3827-0.1331c-0.1258,0-0.2459,0.0463-0.3605,0.1387
		c-0.1147,0.0925-0.172,0.2274-0.172,0.4049C22.9309,2.9991,22.99,3.135,23.1084,3.2256z"/>
</g>
</svg>
