<?xml version="1.0" standalone="no"?>
<!DOCTYPE svg PUBLIC "-//W3C//DTD SVG 20010904//EN"
 "http://www.w3.org/TR/2001/REC-SVG-20010904/DTD/svg10.dtd">
<svg version="1.0" xmlns="http://www.w3.org/2000/svg"
 width="16.000000pt" height="16.000000pt" viewBox="0 0 16.000000 16.000000"
 preserveAspectRatio="xMidYMid meet">
<metadata>
Created by potrace 1.11, written by Peter Selinger 2001-2013
</metadata>
<g transform="translate(0.000000,16.000000) scale(0.001477,-0.001477)"
fill="#000000" stroke="none">
<path d="M5195 10703 c-1591 -75 -3033 -829 -3989 -2083 -1228 -1612 -1429
-3783 -516 -5589 261 -516 568 -940 985 -1356 535 -537 1115 -917 1810 -1190
1595 -626 3399 -439 4833 501 320 210 540 391 838 688 297 298 478 518 688
838 940 1434 1127 3238 501 4833 -273 695 -653 1275 -1190 1810 -416 417 -840
724 -1356 985 -799 404 -1729 605 -2604 563z m-767 -1348 c278 -46 375 -127
463 -390 l24 -70 3 -1142 c1 -629 4 -1143 6 -1143 2 0 42 37 88 83 101 99 207
173 331 232 288 137 684 170 1046 89 375 -84 706 -274 1035 -594 453 -440 694
-889 783 -1455 22 -138 24 -541 4 -685 -65 -469 -242 -881 -538 -1250 -87
-109 -314 -336 -423 -424 -275 -220 -575 -366 -889 -433 -117 -25 -144 -27
-371 -27 -263 -1 -339 8 -517 60 -207 60 -418 192 -523 328 -19 25 -38 45 -41
46 -3 0 -11 -24 -18 -52 -46 -207 -255 -348 -574 -388 -145 -19 -462 -8 -592
20 -128 27 -229 75 -284 136 -49 53 -102 160 -134 272 l-22 77 -3 3025 c-2
2019 1 3063 7 3140 22 244 113 409 263 480 76 36 211 68 338 80 130 12 425 4
538 -15z"/>
<path d="M5548 5390 c-165 -42 -303 -134 -410 -274 -113 -149 -166 -274 -188
-438 -28 -209 36 -417 185 -606 78 -98 163 -168 270 -221 141 -70 305 -95 465
-72 169 25 311 95 437 215 191 181 277 365 277 596 0 135 -18 216 -74 337
-106 228 -274 382 -495 453 -102 33 -356 38 -467 10z"/>
</g>
</svg>
